<?xml version="1.0" encoding="UTF-8" standalone="no"?>
<!-- Created with Inkscape (http://www.inkscape.org/) -->

<svg
   xmlns:dc="http://purl.org/dc/elements/1.1/"
   xmlns:cc="http://creativecommons.org/ns#"
   xmlns:rdf="http://www.w3.org/1999/02/22-rdf-syntax-ns#"
   xmlns:svg="http://www.w3.org/2000/svg"
   xmlns="http://www.w3.org/2000/svg"
   xmlns:xlink="http://www.w3.org/1999/xlink"
   xmlns:sodipodi="http://sodipodi.sourceforge.net/DTD/sodipodi-0.dtd"
   xmlns:inkscape="http://www.inkscape.org/namespaces/inkscape"
   width="210mm"
   height="297mm"
   id="svg2"
   version="1.1"
   inkscape:version="0.48.2 r9819"
   sodipodi:docname="  cant2.svg">
  <defs
     id="defs4" />
  <sodipodi:namedview
     id="base"
     pagecolor="#ffffff"
     bordercolor="#666666"
     borderopacity="1.0"
     inkscape:pageopacity="0.0"
     inkscape:pageshadow="2"
     inkscape:zoom="0.7"
     inkscape:cx="446.87679"
     inkscape:cy="407.53409"
     inkscape:document-units="px"
     inkscape:current-layer="layer1"
     showgrid="true"
     inkscape:window-width="840"
     inkscape:window-height="989"
     inkscape:window-x="0"
     inkscape:window-y="24"
     inkscape:window-maximized="0"
     objecttolerance="1"
     guidetolerance="1"
     gridtolerance="10"
     inkscape:snap-object-midpoints="true"
     inkscape:snap-center="true">
    <inkscape:grid
       type="xygrid"
       id="grid2985"
       empspacing="5"
       visible="true"
       enabled="true"
       snapvisiblegridlinesonly="true"
       units="mm"
       spacingx="14mm"
       originx="105mm"
       originy="148.5mm"
       spacingy="14mm" />
  </sodipodi:namedview>
  <metadata
     id="metadata7">
    <rdf:RDF>
      <cc:Work
         rdf:about="">
        <dc:format>image/svg+xml</dc:format>
        <dc:type
           rdf:resource="http://purl.org/dc/dcmitype/StillImage" />
        <dc:title></dc:title>
      </cc:Work>
    </rdf:RDF>
  </metadata>
  <g
     inkscape:label="Ebene 1"
     inkscape:groupmode="layer"
     id="layer1">
    <path
       sodipodi:type="arc"
       style="fill:none;stroke:#000000;stroke-opacity:1;stroke-width:1.47637795;stroke-miterlimit:4;stroke-dasharray:none"
       id="path3006"
       sodipodi:cx="79.724411"
       sodipodi:cy="74.409424"
       sodipodi:rx="26.574802"
       sodipodi:ry="26.574802"
       d="m 106.29921,74.409424 a 26.574802,26.574802 0 1 1 -53.149601,0 26.574802,26.574802 0 1 1 53.149601,0 z"
       transform="matrix(1.2,0,0,1.2,-269.29134,22.322842)" />
    <use
       x="0"
       y="0"
       xlink:href="#path3006"
       id="use3776"
       transform="translate(545.66929,414.56693)"
       width="744.09448"
       height="1052.3622" />
    <use
       x="0"
       y="0"
       xlink:href="#path3006"
       id="use3780"
       transform="translate(446.45669,414.56693)"
       width="744.09448"
       height="1052.3622" />
    <use
       x="0"
       y="0"
       xlink:href="#path3006"
       id="use3812"
       transform="translate(347.24409,414.56693)"
       width="744.09448"
       height="1052.3622" />
    <use
       x="0"
       y="0"
       xlink:href="#path3006"
       id="use3814"
       transform="translate(248.0315,414.56693)"
       width="744.09448"
       height="1052.3622" />
    <use
       x="0"
       y="0"
       xlink:href="#path3006"
       id="use3816"
       transform="translate(644.88189,414.56693)"
       width="744.09448"
       height="1052.3622" />
    <use
       x="0"
       y="0"
       xlink:href="#path3006"
       id="use3818"
       transform="translate(744.09448,414.56693)"
       width="744.09448"
       height="1052.3622" />
    <path
       transform="matrix(1.2,0,0,1.2,574.01574,436.88977)"
       d="m 106.29921,74.409424 a 26.574802,26.574802 0 1 1 -53.149601,0 26.574802,26.574802 0 1 1 53.149601,0 z"
       sodipodi:ry="26.574802"
       sodipodi:rx="26.574802"
       sodipodi:cy="74.409424"
       sodipodi:cx="79.724411"
       id="use3820"
       style="fill:#000000;stroke:#000000;stroke-width:1.47637795999999999;stroke-miterlimit:4;stroke-opacity:1;stroke-dasharray:none;fill-opacity:1"
       sodipodi:type="arc" />
    <use
       x="0"
       y="0"
       xlink:href="#path3006"
       id="use3822"
       transform="translate(297.6378,364.96063)"
       width="744.09448"
       height="1052.3622" />
    <use
       x="0"
       y="0"
       xlink:href="#path3006"
       id="use3824"
       transform="translate(545.66929,315.35433)"
       width="744.09448"
       height="1052.3622" />
    <use
       x="0"
       y="0"
       xlink:href="#path3006"
       id="use3826"
       transform="translate(545.66929,216.14173)"
       width="744.09448"
       height="1052.3622" />
    <path
       transform="matrix(1.2,0,0,1.2,276.37795,139.25197)"
       d="m 106.29921,74.409424 a 26.574802,26.574802 0 1 1 -53.149601,0 26.574802,26.574802 0 1 1 53.149601,0 z"
       sodipodi:ry="26.574802"
       sodipodi:rx="26.574802"
       sodipodi:cy="74.409424"
       sodipodi:cx="79.724411"
       id="use3828"
       style="fill:#000000;stroke:#000000;stroke-width:1.47637795999999999;stroke-miterlimit:4;stroke-opacity:1;stroke-dasharray:none;fill-opacity:1"
       sodipodi:type="arc" />
    <use
       x="0"
       y="0"
       xlink:href="#path3006"
       id="use3830"
       transform="translate(545.66929,513.77953)"
       width="744.09448"
       height="1052.3622" />
    <use
       x="0"
       y="0"
       xlink:href="#path3006"
       id="use3832"
       transform="translate(545.66929,612.99212)"
       width="744.09448"
       height="1052.3622" />
    <use
       x="0"
       y="0"
       xlink:href="#path3006"
       id="use3834"
       transform="translate(545.66929,712.20472)"
       width="744.09448"
       height="1052.3622" />
    <use
       x="0"
       y="0"
       xlink:href="#path3006"
       id="use3836"
       transform="translate(347.24409,315.35433)"
       width="744.09448"
       height="1052.3622" />
    <use
       x="0"
       y="0"
       xlink:href="#path3006"
       id="use3838"
       transform="translate(396.85039,265.74803)"
       width="744.09448"
       height="1052.3622" />
    <use
       x="0"
       y="0"
       xlink:href="#path3006"
       id="use3840"
       transform="translate(446.45669,216.14173)"
       width="744.09448"
       height="1052.3622" />
    <use
       x="0"
       y="0"
       xlink:href="#path3006"
       id="use3842"
       transform="translate(496.06299,166.53543)"
       width="744.09448"
       height="1052.3622" />
    <use
       x="0"
       y="0"
       xlink:href="#path3006"
       id="use3844"
       transform="translate(595.27559,166.53543)"
       width="744.09448"
       height="1052.3622" />
    <use
       x="0"
       y="0"
       xlink:href="#path3006"
       id="use3846"
       transform="translate(644.88189,216.14173)"
       width="744.09448"
       height="1052.3622" />
    <use
       x="0"
       y="0"
       xlink:href="#path3006"
       id="use3848"
       transform="translate(694.48819,265.74803)"
       width="744.09448"
       height="1052.3622" />
    <use
       x="0"
       y="0"
       xlink:href="#path3006"
       id="use3850"
       transform="translate(744.09448,315.35433)"
       width="744.09448"
       height="1052.3622" />
    <use
       x="0"
       y="0"
       xlink:href="#path3006"
       id="use3852"
       transform="translate(793.70078,364.96063)"
       width="744.09448"
       height="1052.3622" />
    <use
       x="0"
       y="0"
       xlink:href="#path3006"
       id="use3854"
       transform="translate(248.0315,315.35433)"
       width="744.09448"
       height="1052.3622" />
    <use
       x="0"
       y="0"
       xlink:href="#path3006"
       id="use3856"
       transform="translate(297.6378,265.74803)"
       width="744.09448"
       height="1052.3622" />
    <use
       x="0"
       y="0"
       xlink:href="#path3006"
       id="use3858"
       transform="translate(347.24409,216.14173)"
       width="744.09448"
       height="1052.3622" />
    <use
       x="0"
       y="0"
       xlink:href="#path3006"
       id="use3860"
       transform="translate(396.85039,166.53543)"
       width="744.09448"
       height="1052.3622" />
    <path
       transform="matrix(1.2,0,0,1.2,177.16535,139.25197)"
       d="m 106.29921,74.409424 a 26.574802,26.574802 0 1 1 -53.149601,0 26.574802,26.574802 0 1 1 53.149601,0 z"
       sodipodi:ry="26.574802"
       sodipodi:rx="26.574802"
       sodipodi:cy="74.409424"
       sodipodi:cx="79.724411"
       id="use3862"
       style="fill:#000000;stroke:#000000;stroke-width:1.47637795999999999;stroke-miterlimit:4;stroke-opacity:1;stroke-dasharray:none;fill-opacity:1"
       sodipodi:type="arc" />
    <use
       x="0"
       y="0"
       xlink:href="#path3006"
       id="use3864"
       transform="translate(248.0315,216.14173)"
       width="744.09448"
       height="1052.3622" />
    <use
       x="0"
       y="0"
       xlink:href="#path3006"
       id="use3866"
       transform="translate(297.6378,166.53543)"
       width="744.09448"
       height="1052.3622" />
    <path
       transform="matrix(1.2,0,0,1.2,77.95275,139.25197)"
       d="m 106.29921,74.409424 a 26.574802,26.574802 0 1 1 -53.149601,0 26.574802,26.574802 0 1 1 53.149601,0 z"
       sodipodi:ry="26.574802"
       sodipodi:rx="26.574802"
       sodipodi:cy="74.409424"
       sodipodi:cx="79.724411"
       id="use3868"
       style="fill:#000000;stroke:#000000;stroke-width:1.47637795999999999;stroke-miterlimit:4;stroke-opacity:1;stroke-dasharray:none;fill-opacity:1"
       sodipodi:type="arc" />
    <use
       x="0"
       y="0"
       xlink:href="#path3006"
       id="use3870"
       transform="translate(396.85039,364.96063)"
       width="744.09448"
       height="1052.3622" />
    <use
       x="0"
       y="0"
       xlink:href="#path3006"
       id="use3872"
       transform="translate(446.45669,315.35433)"
       width="744.09448"
       height="1052.3622" />
    <use
       x="0"
       y="0"
       xlink:href="#path3006"
       id="use3874"
       transform="translate(496.06299,265.74803)"
       width="744.09448"
       height="1052.3622" />
    <use
       x="0"
       y="0"
       xlink:href="#path3006"
       id="use3876"
       transform="translate(496.06299,364.96063)"
       width="744.09448"
       height="1052.3622" />
    <path
       transform="matrix(1.2,0,0,1.2,375.59055,139.25197)"
       d="m 106.29921,74.409424 a 26.574802,26.574802 0 1 1 -53.149601,0 26.574802,26.574802 0 1 1 53.149601,0 z"
       sodipodi:ry="26.574802"
       sodipodi:rx="26.574802"
       sodipodi:cy="74.409424"
       sodipodi:cx="79.724411"
       id="use3878"
       style="fill:#000000;stroke:#000000;stroke-width:1.47637795999999999;stroke-miterlimit:4;stroke-opacity:1;stroke-dasharray:none;fill-opacity:1"
       sodipodi:type="arc" />
    <use
       x="0"
       y="0"
       xlink:href="#path3006"
       id="use3880"
       transform="translate(694.48819,166.53543)"
       width="744.09448"
       height="1052.3622" />
    <use
       x="0"
       y="0"
       xlink:href="#path3006"
       id="use3882"
       transform="translate(744.09448,216.14173)"
       width="744.09448"
       height="1052.3622" />
    <use
       x="0"
       y="0"
       xlink:href="#path3006"
       id="use3884"
       transform="translate(793.70078,265.74803)"
       width="744.09448"
       height="1052.3622" />
    <path
       transform="matrix(1.2,0,0,1.2,574.01574,337.67717)"
       d="m 106.29921,74.409424 a 26.574802,26.574802 0 1 1 -53.149601,0 26.574802,26.574802 0 1 1 53.149601,0 z"
       sodipodi:ry="26.574802"
       sodipodi:rx="26.574802"
       sodipodi:cy="74.409424"
       sodipodi:cx="79.724411"
       id="use3886"
       style="fill:#000000;stroke:#000000;stroke-width:1.47637795999999999;stroke-miterlimit:4;stroke-opacity:1;stroke-dasharray:none;fill-opacity:1"
       sodipodi:type="arc" />
    <path
       transform="matrix(1.2,0,0,1.2,474.80314,139.25197)"
       d="m 106.29921,74.409424 a 26.574802,26.574802 0 1 1 -53.149601,0 26.574802,26.574802 0 1 1 53.149601,0 z"
       sodipodi:ry="26.574802"
       sodipodi:rx="26.574802"
       sodipodi:cy="74.409424"
       sodipodi:cx="79.724411"
       id="use3888"
       style="fill:#000000;stroke:#000000;stroke-width:1.47637795999999999;stroke-miterlimit:4;stroke-opacity:1;stroke-dasharray:none;fill-opacity:1"
       sodipodi:type="arc" />
    <use
       x="0"
       y="0"
       xlink:href="#path3006"
       id="use3890"
       transform="translate(793.70078,166.53543)"
       width="744.09448"
       height="1052.3622" />
    <path
       transform="matrix(1.2,0,0,1.2,574.01574,238.46457)"
       d="m 106.29921,74.409424 a 26.574802,26.574802 0 1 1 -53.149601,0 26.574802,26.574802 0 1 1 53.149601,0 z"
       sodipodi:ry="26.574802"
       sodipodi:rx="26.574802"
       sodipodi:cy="74.409424"
       sodipodi:cx="79.724411"
       id="use3892"
       style="fill:#000000;stroke:#000000;stroke-width:1.47637795999999999;stroke-miterlimit:4;stroke-opacity:1;stroke-dasharray:none;fill-opacity:1"
       sodipodi:type="arc" />
    <use
       x="0"
       y="0"
       xlink:href="#path3006"
       id="use3894"
       transform="translate(595.27559,265.74803)"
       width="744.09448"
       height="1052.3622" />
    <use
       x="0"
       y="0"
       xlink:href="#path3006"
       id="use3896"
       transform="translate(644.88189,315.35433)"
       width="744.09448"
       height="1052.3622" />
    <use
       x="0"
       y="0"
       xlink:href="#path3006"
       id="use3898"
       transform="translate(595.27559,364.96063)"
       width="744.09448"
       height="1052.3622" />
    <use
       x="0"
       y="0"
       xlink:href="#path3006"
       id="use3900"
       transform="translate(694.48819,364.96063)"
       width="744.09448"
       height="1052.3622" />
    <use
       x="0"
       y="0"
       xlink:href="#path3006"
       id="use3902"
       transform="translate(297.6378,464.17323)"
       width="744.09448"
       height="1052.3622" />
    <use
       x="0"
       y="0"
       xlink:href="#path3006"
       id="use3904"
       transform="translate(347.24409,513.77953)"
       width="744.09448"
       height="1052.3622" />
    <use
       x="0"
       y="0"
       xlink:href="#path3006"
       id="use3906"
       transform="translate(396.85039,563.38582)"
       width="744.09448"
       height="1052.3622" />
    <use
       x="0"
       y="0"
       xlink:href="#path3006"
       id="use3908"
       transform="translate(446.45669,612.99212)"
       width="744.09448"
       height="1052.3622" />
    <use
       x="0"
       y="0"
       xlink:href="#path3006"
       id="use3910"
       transform="translate(496.06299,662.59842)"
       width="744.09448"
       height="1052.3622" />
    <use
       x="0"
       y="0"
       xlink:href="#path3006"
       id="use3912"
       transform="translate(595.27559,662.59842)"
       width="744.09448"
       height="1052.3622" />
    <use
       x="0"
       y="0"
       xlink:href="#path3006"
       id="use3914"
       transform="translate(644.88189,612.99212)"
       width="744.09448"
       height="1052.3622" />
    <use
       x="0"
       y="0"
       xlink:href="#path3006"
       id="use3916"
       transform="translate(694.48819,563.38582)"
       width="744.09448"
       height="1052.3622" />
    <use
       x="0"
       y="0"
       xlink:href="#path3006"
       id="use3918"
       transform="translate(744.09448,513.77953)"
       width="744.09448"
       height="1052.3622" />
    <use
       x="0"
       y="0"
       xlink:href="#path3006"
       id="use3920"
       transform="translate(793.70078,464.17323)"
       width="744.09448"
       height="1052.3622" />
    <use
       x="0"
       y="0"
       xlink:href="#path3006"
       id="use3922"
       transform="translate(396.85039,464.17323)"
       width="744.09448"
       height="1052.3622" />
    <use
       x="0"
       y="0"
       xlink:href="#path3006"
       id="use3924"
       transform="translate(446.45669,513.77953)"
       width="744.09448"
       height="1052.3622" />
    <use
       x="0"
       y="0"
       xlink:href="#path3006"
       id="use3926"
       transform="translate(496.06299,464.17323)"
       width="744.09448"
       height="1052.3622" />
    <use
       x="0"
       y="0"
       xlink:href="#path3006"
       id="use3928"
       transform="translate(496.06299,563.38582)"
       width="744.09448"
       height="1052.3622" />
    <use
       x="0"
       y="0"
       xlink:href="#path3006"
       id="use3930"
       transform="translate(595.27559,464.17323)"
       width="744.09448"
       height="1052.3622" />
    <use
       x="0"
       y="0"
       xlink:href="#path3006"
       id="use3932"
       transform="translate(694.48819,464.17323)"
       width="744.09448"
       height="1052.3622" />
    <use
       x="0"
       y="0"
       xlink:href="#path3006"
       id="use3934"
       transform="translate(595.27559,563.38582)"
       width="744.09448"
       height="1052.3622" />
    <use
       x="0"
       y="0"
       xlink:href="#path3006"
       id="use3936"
       transform="translate(644.88189,513.77953)"
       width="744.09448"
       height="1052.3622" />
    <use
       x="0"
       y="0"
       xlink:href="#path3006"
       id="use3938"
       transform="translate(248.0315,513.77953)"
       width="744.09448"
       height="1052.3622" />
    <use
       x="0"
       y="0"
       xlink:href="#path3006"
       id="use3940"
       transform="translate(297.6378,563.38582)"
       width="744.09448"
       height="1052.3622" />
    <use
       x="0"
       y="0"
       xlink:href="#path3006"
       id="use3942"
       transform="translate(347.24409,612.99212)"
       width="744.09448"
       height="1052.3622" />
    <use
       x="0"
       y="0"
       xlink:href="#path3006"
       id="use3052"
       transform="translate(396.85039,662.59842)"
       width="744.09448"
       height="1052.3622" />
    <use
       x="0"
       y="0"
       xlink:href="#path3006"
       id="use3054"
       transform="translate(446.45669,712.20472)"
       width="744.09448"
       height="1052.3622" />
    <use
       x="0"
       y="0"
       xlink:href="#path3006"
       id="use3056"
       transform="translate(248.0315,612.99212)"
       width="744.09448"
       height="1052.3622" />
    <use
       x="0"
       y="0"
       xlink:href="#path3006"
       id="use3058"
       transform="translate(297.6378,662.59842)"
       width="744.09448"
       height="1052.3622" />
    <use
       x="0"
       y="0"
       xlink:href="#path3006"
       id="use3060"
       transform="translate(347.24409,712.20472)"
       width="744.09448"
       height="1052.3622" />
    <use
       x="0"
       y="0"
       xlink:href="#path3006"
       id="use3062"
       transform="translate(793.70078,563.38582)"
       width="744.09448"
       height="1052.3622" />
    <use
       x="0"
       y="0"
       xlink:href="#path3006"
       id="use3064"
       transform="translate(744.09448,612.99212)"
       width="744.09448"
       height="1052.3622" />
    <use
       x="0"
       y="0"
       xlink:href="#path3006"
       id="use3066"
       transform="translate(694.48819,662.59842)"
       width="744.09448"
       height="1052.3622" />
    <use
       x="0"
       y="0"
       xlink:href="#path3006"
       id="use3068"
       transform="translate(644.88189,712.20472)"
       width="744.09448"
       height="1052.3622" />
    <use
       x="0"
       y="0"
       xlink:href="#path3006"
       id="use3070"
       transform="translate(744.09448,712.20472)"
       width="744.09448"
       height="1052.3622" />
    <path
       transform="matrix(1.2,0,0,1.2,574.01574,536.10237)"
       d="m 106.29921,74.409424 a 26.574802,26.574802 0 1 1 -53.149601,0 26.574802,26.574802 0 1 1 53.149601,0 z"
       sodipodi:ry="26.574802"
       sodipodi:rx="26.574802"
       sodipodi:cy="74.409424"
       sodipodi:cx="79.724411"
       id="use3072"
       style="fill:#000000;stroke:#000000;stroke-width:1.47637795999999999;stroke-miterlimit:4;stroke-opacity:1;stroke-dasharray:none;fill-opacity:1"
       sodipodi:type="arc" />
    <use
       x="0"
       y="0"
       xlink:href="#path3006"
       id="use3074"
       transform="translate(793.70078,662.59842)"
       width="744.09448"
       height="1052.3622" />
    <path
       transform="matrix(1.2,0,0,1.2,574.01574,635.31496)"
       d="m 106.29921,74.409424 a 26.574802,26.574802 0 1 1 -53.149601,0 26.574802,26.574802 0 1 1 53.149601,0 z"
       sodipodi:ry="26.574802"
       sodipodi:rx="26.574802"
       sodipodi:cy="74.409424"
       sodipodi:cx="79.724411"
       id="use3076"
       style="fill:#000000;stroke:#000000;stroke-width:1.47637795999999999;stroke-miterlimit:4;stroke-opacity:1;stroke-dasharray:none;fill-opacity:1"
       sodipodi:type="arc" />
    <use
       x="0"
       y="0"
       xlink:href="#path3006"
       id="use3078"
       transform="translate(248.0315,712.20472)"
       width="744.09448"
       height="1052.3622" />
    <path
       transform="matrix(1.2,0,0,1.2,574.01574,139.25197)"
       d="m 106.29921,74.409424 a 26.574802,26.574802 0 1 1 -53.149601,0 26.574802,26.574802 0 1 1 53.149601,0 z"
       sodipodi:ry="26.574802"
       sodipodi:rx="26.574802"
       sodipodi:cy="74.409424"
       sodipodi:cx="79.724411"
       id="use3080"
       style="fill:#000000;stroke:#000000;stroke-width:1.47637795999999999;stroke-miterlimit:4;stroke-opacity:1;stroke-dasharray:none;fill-opacity:1"
       sodipodi:type="arc" />
    <text
       xml:space="preserve"
       style="font-size:48px;font-style:normal;font-variant:normal;font-weight:normal;font-stretch:normal;line-height:125%;letter-spacing:0px;word-spacing:0px;fill:#000000;fill-opacity:1;stroke:none;font-family:Yanone Kaffeesatz;-inkscape-font-specification:Yanone Kaffeesatz"
       x="965.89758"
       y="193.54297"
       id="text3850"
       sodipodi:linespacing="125%"
       transform="matrix(0.70710678,0.70710678,-0.70710678,0.70710678,0,0)"><tspan
         sodipodi:role="line"
         id="tspan3852"
         x="965.89758"
         y="193.54297">12</tspan></text>
    <use
       x="0"
       y="0"
       xlink:href="#text3850"
       id="use3855"
       transform="translate(49.606299,-49.60628)"
       width="744.09448"
       height="1052.3622" />
    <text
       transform="matrix(0.70710678,0.70710678,-0.70710678,0.70710678,0,0)"
       sodipodi:linespacing="125%"
       id="use3857"
       y="53.23518"
       x="965.89758"
       style="font-size:48px;font-style:normal;font-variant:normal;font-weight:normal;font-stretch:normal;line-height:125%;letter-spacing:0px;word-spacing:0px;fill:#ffffff;fill-opacity:1;stroke:none;font-family:Yanone Kaffeesatz;-inkscape-font-specification:Yanone Kaffeesatz"
       xml:space="preserve"><tspan
         y="53.23518"
         x="965.89758"
         id="tspan4036"
         sodipodi:role="line">12</tspan></text>
    <text
       xml:space="preserve"
       style="font-size:48px;font-style:normal;font-variant:normal;font-weight:normal;font-stretch:normal;line-height:125%;letter-spacing:0px;word-spacing:0px;fill:#000000;fill-opacity:1;stroke:none;font-family:Yanone Kaffeesatz;-inkscape-font-specification:Yanone Kaffeesatz"
       x="895.71967"
       y="263.69687"
       id="text3850-4"
       sodipodi:linespacing="125%"
       transform="matrix(0.70710678,0.70710678,-0.70710678,0.70710678,0,0)"><tspan
         sodipodi:role="line"
         id="tspan3852-9"
         x="895.71967"
         y="263.69687">11</tspan></text>
    <text
       xml:space="preserve"
       style="font-size:48px;font-style:normal;font-variant:normal;font-weight:normal;font-stretch:normal;line-height:125%;letter-spacing:0px;word-spacing:0px;fill:#000000;fill-opacity:1;stroke:none;font-family:Yanone Kaffeesatz;-inkscape-font-specification:Yanone Kaffeesatz"
       x="825.37378"
       y="333.65878"
       id="text3850-5"
       sodipodi:linespacing="125%"
       transform="matrix(0.70710678,0.70710678,-0.70710678,0.70710678,0,0)"><tspan
         sodipodi:role="line"
         id="tspan3852-3"
         x="825.37378"
         y="333.65878">10</tspan></text>
    <text
       xml:space="preserve"
       style="font-size:48px;font-style:normal;font-variant:normal;font-weight:normal;font-stretch:normal;line-height:125%;letter-spacing:0px;word-spacing:0px;fill:#000000;fill-opacity:1;stroke:none;font-family:Yanone Kaffeesatz;-inkscape-font-specification:Yanone Kaffeesatz"
       x="765.46716"
       y="401.72467"
       id="text3850-9"
       sodipodi:linespacing="125%"
       transform="matrix(0.70710678,0.70710678,-0.70710678,0.70710678,0,0)"><tspan
         sodipodi:role="line"
         id="tspan3852-0"
         x="765.46716"
         y="401.72467">9</tspan></text>
    <text
       xml:space="preserve"
       style="font-size:48px;font-style:normal;font-variant:normal;font-weight:normal;font-stretch:normal;line-height:125%;letter-spacing:0px;word-spacing:0px;fill:#000000;fill-opacity:1;stroke:none;font-family:Yanone Kaffeesatz;-inkscape-font-specification:Yanone Kaffeesatz"
       x="695.16925"
       y="476.48657"
       id="text3850-6"
       sodipodi:linespacing="125%"
       transform="matrix(0.70710678,0.70710678,-0.70710678,0.70710678,0,0)"><tspan
         sodipodi:role="line"
         id="tspan3852-06"
         x="695.16925"
         y="476.48657">8</tspan></text>
    <text
       xml:space="preserve"
       style="font-size:48px;font-style:normal;font-variant:normal;font-weight:normal;font-stretch:normal;line-height:125%;letter-spacing:0px;word-spacing:0px;fill:#000000;fill-opacity:1;stroke:none;font-family:Yanone Kaffeesatz;-inkscape-font-specification:Yanone Kaffeesatz"
       x="624.39136"
       y="542.2005"
       id="text3850-8"
       sodipodi:linespacing="125%"
       transform="matrix(0.70710678,0.70710678,-0.70710678,0.70710678,0,0)"><tspan
         sodipodi:role="line"
         id="tspan3852-08"
         x="624.39136"
         y="542.2005">7</tspan></text>
    <text
       xml:space="preserve"
       style="font-size:48px;font-style:normal;font-variant:normal;font-weight:normal;font-stretch:normal;line-height:125%;letter-spacing:0px;word-spacing:0px;fill:#000000;fill-opacity:1;stroke:none;font-family:Yanone Kaffeesatz;-inkscape-font-specification:Yanone Kaffeesatz"
       x="554.86145"
       y="476.2226"
       id="text3850-96"
       sodipodi:linespacing="125%"
       transform="matrix(0.70710678,0.70710678,-0.70710678,0.70710678,0,0)"><tspan
         sodipodi:role="line"
         id="tspan3852-6"
         x="554.86145"
         y="476.2226">6</tspan></text>
    <text
       xml:space="preserve"
       style="font-size:48px;font-style:normal;font-variant:normal;font-weight:normal;font-stretch:normal;line-height:125%;letter-spacing:0px;word-spacing:0px;fill:#000000;fill-opacity:1;stroke:none;font-family:Yanone Kaffeesatz;-inkscape-font-specification:Yanone Kaffeesatz"
       x="484.92352"
       y="401.60468"
       id="text3850-0"
       sodipodi:linespacing="125%"
       transform="matrix(0.70710678,0.70710678,-0.70710678,0.70710678,0,0)"><tspan
         sodipodi:role="line"
         id="tspan3852-8"
         x="484.92352"
         y="401.60468">5</tspan></text>
    <text
       xml:space="preserve"
       style="font-size:48px;font-style:normal;font-variant:normal;font-weight:normal;font-stretch:normal;line-height:125%;letter-spacing:0px;word-spacing:0px;fill:#000000;fill-opacity:1;stroke:none;font-family:Yanone Kaffeesatz;-inkscape-font-specification:Yanone Kaffeesatz"
       x="414.55365"
       y="333.99478"
       id="text3850-97"
       sodipodi:linespacing="125%"
       transform="matrix(0.70710678,0.70710678,-0.70710678,0.70710678,0,0)"><tspan
         sodipodi:role="line"
         id="tspan3852-97"
         x="414.55365"
         y="333.99478">4</tspan></text>
    <text
       xml:space="preserve"
       style="font-size:48px;font-style:normal;font-variant:normal;font-weight:normal;font-stretch:normal;line-height:125%;letter-spacing:0px;word-spacing:0px;fill:#000000;fill-opacity:1;stroke:none;font-family:Yanone Kaffeesatz;-inkscape-font-specification:Yanone Kaffeesatz"
       x="344.47174"
       y="261.29688"
       id="text3850-1"
       sodipodi:linespacing="125%"
       transform="matrix(0.70710678,0.70710678,-0.70710678,0.70710678,0,0)"><tspan
         sodipodi:role="line"
         id="tspan3852-081"
         x="344.47174"
         y="261.29688">3</tspan></text>
    <text
       xml:space="preserve"
       style="font-size:48px;font-style:normal;font-variant:normal;font-weight:normal;font-stretch:normal;line-height:125%;letter-spacing:0px;word-spacing:0px;fill:#000000;fill-opacity:1;stroke:none;font-family:Yanone Kaffeesatz;-inkscape-font-specification:Yanone Kaffeesatz"
       x="274.36584"
       y="193.54298"
       id="text3850-06"
       sodipodi:linespacing="125%"
       transform="matrix(0.70710678,0.70710678,-0.70710678,0.70710678,0,0)"><tspan
         sodipodi:role="line"
         id="tspan3852-36"
         x="274.36584"
         y="193.54298">2</tspan></text>
    <use
       x="0"
       y="0"
       xlink:href="#text3850-4"
       id="use3963"
       transform="translate(49.60631,-49.606268)"
       width="744.09448"
       height="1052.3622" />
    <use
       x="0"
       y="0"
       xlink:href="#text3850-4"
       id="use3965"
       transform="translate(99.212609,-99.212567)"
       width="744.09448"
       height="1052.3622" />
    <use
       x="0"
       y="0"
       xlink:href="#text3850-4"
       id="use3967"
       transform="translate(148.81891,-148.81887)"
       width="744.09448"
       height="1052.3622" />
    <text
       transform="matrix(0.70710678,0.70710678,-0.70710678,0.70710678,0,0)"
       sodipodi:linespacing="125%"
       id="use3969"
       y="-16.918726"
       x="895.71967"
       style="font-size:48px;font-style:normal;font-variant:normal;font-weight:normal;font-stretch:normal;line-height:125%;letter-spacing:0px;word-spacing:0px;fill:#ffffff;fill-opacity:1;stroke:none;font-family:Yanone Kaffeesatz;-inkscape-font-specification:Yanone Kaffeesatz"
       xml:space="preserve"><tspan
         y="-16.918726"
         x="895.71967"
         id="tspan4040"
         sodipodi:role="line">11</tspan></text>
    <use
       x="0"
       y="0"
       xlink:href="#text3850-5"
       id="use3971"
       transform="translate(49.606308,-49.606288)"
       width="744.09448"
       height="1052.3622" />
    <use
       x="0"
       y="0"
       xlink:href="#text3850-5"
       id="use3973"
       transform="translate(99.212608,-99.212587)"
       width="744.09448"
       height="1052.3622" />
    <use
       x="0"
       y="0"
       xlink:href="#text3850-5"
       id="use3975"
       transform="translate(148.81891,-148.81889)"
       width="744.09448"
       height="1052.3622" />
    <use
       x="0"
       y="0"
       xlink:href="#text3850-5"
       id="use3977"
       transform="translate(198.42521,-198.42519)"
       width="744.09448"
       height="1052.3622" />
    <use
       x="0"
       y="0"
       xlink:href="#text3850-5"
       id="use3979"
       transform="translate(248.03151,-248.03148)"
       width="744.09448"
       height="1052.3622" />
    <text
       transform="matrix(0.70710678,0.70710678,-0.70710678,0.70710678,0,0)"
       sodipodi:linespacing="125%"
       id="use3981"
       y="-87.264618"
       x="825.37378"
       style="font-size:48px;font-style:normal;font-variant:normal;font-weight:normal;font-stretch:normal;line-height:125%;letter-spacing:0px;word-spacing:0px;fill:#ffffff;fill-opacity:1;stroke:none;font-family:Yanone Kaffeesatz;-inkscape-font-specification:Yanone Kaffeesatz"
       xml:space="preserve"><tspan
         y="-87.264618"
         x="825.37378"
         id="tspan4044"
         sodipodi:role="line">10</tspan></text>
    <use
       x="0"
       y="0"
       xlink:href="#text3850-9"
       id="use3983"
       transform="translate(49.606274,-49.606303)"
       width="744.09448"
       height="1052.3622" />
    <use
       x="0"
       y="0"
       xlink:href="#text3850-9"
       id="use3985"
       transform="translate(99.212573,-99.212602)"
       width="744.09448"
       height="1052.3622" />
    <use
       x="0"
       y="0"
       xlink:href="#text3850-9"
       id="use3987"
       transform="translate(148.81887,-148.8189)"
       width="744.09448"
       height="1052.3622" />
    <use
       x="0"
       y="0"
       xlink:href="#text3850-9"
       id="use3989"
       transform="translate(198.42517,-198.4252)"
       width="744.09448"
       height="1052.3622" />
    <use
       x="0"
       y="0"
       xlink:href="#text3850-9"
       id="use3991"
       transform="translate(248.03147,-248.0315)"
       width="744.09448"
       height="1052.3622" />
    <use
       x="0"
       y="0"
       xlink:href="#text3850-9"
       id="use3993"
       transform="translate(297.63777,-297.6378)"
       width="744.09448"
       height="1052.3622" />
    <use
       x="0"
       y="0"
       xlink:href="#text3850-9"
       id="use3995"
       transform="translate(347.24407,-347.2441)"
       width="744.09448"
       height="1052.3622" />
    <text
       transform="matrix(0.70710678,0.70710678,-0.70710678,0.70710678,0,0)"
       sodipodi:linespacing="125%"
       id="use3997"
       y="-159.50653"
       x="765.46716"
       style="font-size:48px;font-style:normal;font-variant:normal;font-weight:normal;font-stretch:normal;line-height:125%;letter-spacing:0px;word-spacing:0px;fill:#ffffff;fill-opacity:1;stroke:none;font-family:Yanone Kaffeesatz;-inkscape-font-specification:Yanone Kaffeesatz"
       xml:space="preserve"><tspan
         y="-159.50653"
         x="765.46716"
         id="tspan4048"
         sodipodi:role="line">9</tspan></text>
    <use
       x="0"
       y="0"
       xlink:href="#text3850-6"
       id="use3117"
       transform="translate(49.606282,-49.606295)"
       width="744.09448"
       height="1052.3622" />
    <use
       x="0"
       y="0"
       xlink:href="#text3850-6"
       id="use3119"
       transform="translate(99.212582,-99.212594)"
       width="744.09448"
       height="1052.3622" />
    <use
       x="0"
       y="0"
       xlink:href="#text3850-6"
       id="use3121"
       transform="translate(148.81888,-148.81889)"
       width="744.09448"
       height="1052.3622" />
    <use
       x="0"
       y="0"
       xlink:href="#text3850-6"
       id="use3123"
       transform="translate(198.42518,-198.42519)"
       width="744.09448"
       height="1052.3622" />
    <use
       x="0"
       y="0"
       xlink:href="#text3850-6"
       id="use3125"
       transform="translate(248.03148,-248.03149)"
       width="744.09448"
       height="1052.3622" />
    <use
       x="0"
       y="0"
       xlink:href="#text3850-6"
       id="use3127"
       transform="translate(297.63778,-297.63779)"
       width="744.09448"
       height="1052.3622" />
    <use
       x="0"
       y="0"
       xlink:href="#text3850-6"
       id="use3129"
       transform="translate(347.24408,-347.24409)"
       width="744.09448"
       height="1052.3622" />
    <use
       x="0"
       y="0"
       xlink:href="#text3850-6"
       id="use3131"
       transform="translate(396.85038,-396.85039)"
       width="744.09448"
       height="1052.3622" />
    <use
       x="0"
       y="0"
       xlink:href="#text3850-6"
       id="use3133"
       transform="translate(446.45668,-446.45669)"
       width="744.09448"
       height="1052.3622" />
    <text
       transform="matrix(0.70710678,0.70710678,-0.70710678,0.70710678,0,0)"
       sodipodi:linespacing="125%"
       id="use3135"
       y="-225.05243"
       x="695.16925"
       style="font-size:48px;font-style:normal;font-variant:normal;font-weight:normal;font-stretch:normal;line-height:125%;letter-spacing:0px;word-spacing:0px;fill:#ffffff;fill-opacity:1;stroke:none;font-family:Yanone Kaffeesatz;-inkscape-font-specification:Yanone Kaffeesatz"
       xml:space="preserve"><tspan
         y="-225.05243"
         x="695.16925"
         id="tspan4052"
         sodipodi:role="line">8</tspan></text>
    <use
       x="0"
       y="0"
       xlink:href="#text3850-8"
       id="use3137"
       transform="translate(49.606296,-49.60632)"
       width="744.09448"
       height="1052.3622" />
    <use
       x="0"
       y="0"
       xlink:href="#text3850-8"
       id="use3139"
       transform="translate(99.212595,-99.212619)"
       width="744.09448"
       height="1052.3622" />
    <use
       x="0"
       y="0"
       xlink:href="#text3850-8"
       id="use3141"
       transform="translate(148.81889,-148.81892)"
       width="744.09448"
       height="1052.3622" />
    <use
       x="0"
       y="0"
       xlink:href="#text3850-8"
       id="use3143"
       transform="translate(198.42519,-198.42522)"
       width="744.09448"
       height="1052.3622" />
    <use
       x="0"
       y="0"
       xlink:href="#text3850-8"
       id="use3145"
       transform="translate(248.03149,-248.03152)"
       width="744.09448"
       height="1052.3622" />
    <use
       x="0"
       y="0"
       xlink:href="#text3850-8"
       id="use3147"
       transform="translate(297.63779,-297.63782)"
       width="744.09448"
       height="1052.3622" />
    <use
       x="0"
       y="0"
       xlink:href="#text3850-8"
       id="use3149"
       transform="translate(347.24409,-347.24412)"
       width="744.09448"
       height="1052.3622" />
    <use
       x="0"
       y="0"
       xlink:href="#text3850-8"
       id="use3151"
       transform="translate(396.85039,-396.85041)"
       width="744.09448"
       height="1052.3622" />
    <use
       x="0"
       y="0"
       xlink:href="#text3850-8"
       id="use3153"
       transform="translate(446.45669,-446.45671)"
       width="744.09448"
       height="1052.3622" />
    <use
       x="0"
       y="0"
       xlink:href="#text3850-8"
       id="use3155"
       transform="translate(496.06299,-496.06301)"
       width="744.09448"
       height="1052.3622" />
    <use
       x="0"
       y="0"
       xlink:href="#text3850-8"
       id="use3157"
       transform="translate(545.66929,-545.66931)"
       width="744.09448"
       height="1052.3622" />
    <text
       transform="matrix(0.70710678,0.70710678,-0.70710678,0.70710678,0,0)"
       sodipodi:linespacing="125%"
       id="use3159"
       y="-299.64633"
       x="624.39136"
       style="font-size:48px;font-style:normal;font-variant:normal;font-weight:normal;font-stretch:normal;line-height:125%;letter-spacing:0px;word-spacing:0px;fill:#ffffff;fill-opacity:1;stroke:none;font-family:Yanone Kaffeesatz;-inkscape-font-specification:Yanone Kaffeesatz"
       xml:space="preserve"><tspan
         y="-299.64633"
         x="624.39136"
         id="tspan4056"
         sodipodi:role="line">7</tspan></text>
    <use
       x="0"
       y="0"
       xlink:href="#text3850-96"
       id="use3161"
       transform="translate(49.606297,-49.606313)"
       width="744.09448"
       height="1052.3622" />
    <use
       x="0"
       y="0"
       xlink:href="#text3850-96"
       id="use3163"
       transform="translate(99.212596,-99.212612)"
       width="744.09448"
       height="1052.3622" />
    <use
       x="0"
       y="0"
       xlink:href="#text3850-96"
       id="use3165"
       transform="translate(148.8189,-148.81891)"
       width="744.09448"
       height="1052.3622" />
    <use
       x="0"
       y="0"
       xlink:href="#text3850-96"
       id="use3167"
       transform="translate(198.42519,-198.42521)"
       width="744.09448"
       height="1052.3622" />
    <use
       x="0"
       y="0"
       xlink:href="#text3850-96"
       id="use3169"
       transform="translate(248.03149,-248.03151)"
       width="744.09448"
       height="1052.3622" />
    <use
       x="0"
       y="0"
       xlink:href="#text3850-96"
       id="use3171"
       transform="translate(297.63779,-297.63781)"
       width="744.09448"
       height="1052.3622" />
    <use
       x="0"
       y="0"
       xlink:href="#text3850-96"
       id="use3173"
       transform="translate(347.24409,-347.24411)"
       width="744.09448"
       height="1052.3622" />
    <use
       x="0"
       y="0"
       xlink:href="#text3850-96"
       id="use3175"
       transform="translate(396.85039,-396.85041)"
       width="744.09448"
       height="1052.3622" />
    <use
       x="0"
       y="0"
       xlink:href="#text3850-96"
       id="use3177"
       transform="translate(446.45669,-446.45671)"
       width="744.09448"
       height="1052.3622" />
    <text
       transform="matrix(0.70710678,0.70710678,-0.70710678,0.70710678,0,0)"
       sodipodi:linespacing="125%"
       id="use3179"
       y="-225.31642"
       x="554.86145"
       style="font-size:48px;font-style:normal;font-variant:normal;font-weight:normal;font-stretch:normal;line-height:125%;letter-spacing:0px;word-spacing:0px;fill:#ffffff;fill-opacity:1;stroke:none;font-family:Yanone Kaffeesatz;-inkscape-font-specification:Yanone Kaffeesatz"
       xml:space="preserve"><tspan
         y="-225.31642"
         x="554.86145"
         id="tspan4060"
         sodipodi:role="line">6</tspan></text>
    <use
       x="0"
       y="0"
       xlink:href="#text3850-0"
       id="use3181"
       transform="translate(49.606302,-49.606281)"
       width="744.09448"
       height="1052.3622" />
    <use
       x="0"
       y="0"
       xlink:href="#text3850-0"
       id="use3183"
       transform="translate(99.212601,-99.21258)"
       width="744.09448"
       height="1052.3622" />
    <use
       x="0"
       y="0"
       xlink:href="#text3850-0"
       id="use3185"
       transform="translate(148.8189,-148.81888)"
       width="744.09448"
       height="1052.3622" />
    <use
       x="0"
       y="0"
       xlink:href="#text3850-0"
       id="use3187"
       transform="translate(198.4252,-198.42518)"
       width="744.09448"
       height="1052.3622" />
    <use
       x="0"
       y="0"
       xlink:href="#text3850-0"
       id="use3189"
       transform="translate(248.0315,-248.03148)"
       width="744.09448"
       height="1052.3622" />
    <use
       x="0"
       y="0"
       xlink:href="#text3850-0"
       id="use3191"
       transform="translate(297.6378,-297.63778)"
       width="744.09448"
       height="1052.3622" />
    <use
       x="0"
       y="0"
       xlink:href="#text3850-0"
       id="use3193"
       transform="translate(347.2441,-347.24408)"
       width="744.09448"
       height="1052.3622" />
    <text
       transform="matrix(0.70710678,0.70710678,-0.70710678,0.70710678,0,0)"
       sodipodi:linespacing="125%"
       id="use3195"
       y="-159.62653"
       x="484.92352"
       style="font-size:48px;font-style:normal;font-variant:normal;font-weight:normal;font-stretch:normal;line-height:125%;letter-spacing:0px;word-spacing:0px;fill:#ffffff;fill-opacity:1;stroke:none;font-family:Yanone Kaffeesatz;-inkscape-font-specification:Yanone Kaffeesatz"
       xml:space="preserve"><tspan
         y="-159.62653"
         x="484.92352"
         id="tspan4064"
         sodipodi:role="line">5</tspan></text>
    <use
       x="0"
       y="0"
       xlink:href="#text3850-97"
       id="use3197"
       transform="translate(49.606288,-49.606306)"
       width="744.09448"
       height="1052.3622" />
    <use
       x="0"
       y="0"
       xlink:href="#text3850-97"
       id="use3199"
       transform="translate(99.212587,-99.212606)"
       width="744.09448"
       height="1052.3622" />
    <use
       x="0"
       y="0"
       xlink:href="#text3850-97"
       id="use3201"
       transform="translate(148.81889,-148.8189)"
       width="744.09448"
       height="1052.3622" />
    <use
       x="0"
       y="0"
       xlink:href="#text3850-97"
       id="use3203"
       transform="translate(198.42519,-198.4252)"
       width="744.09448"
       height="1052.3622" />
    <use
       x="0"
       y="0"
       xlink:href="#text3850-97"
       id="use3205"
       transform="translate(248.03148,-248.0315)"
       width="744.09448"
       height="1052.3622" />
    <text
       transform="matrix(0.70710678,0.70710678,-0.70710678,0.70710678,0,0)"
       sodipodi:linespacing="125%"
       id="use3207"
       y="-86.928619"
       x="414.55365"
       style="font-size:48px;font-style:normal;font-variant:normal;font-weight:normal;font-stretch:normal;line-height:125%;letter-spacing:0px;word-spacing:0px;fill:#ffffff;fill-opacity:1;stroke:none;font-family:Yanone Kaffeesatz;-inkscape-font-specification:Yanone Kaffeesatz"
       xml:space="preserve"><tspan
         y="-86.928619"
         x="414.55365"
         id="tspan4068"
         sodipodi:role="line">4</tspan></text>
    <use
       x="0"
       y="0"
       xlink:href="#text3850-1"
       id="use3209"
       transform="translate(49.606289,-49.606297)"
       width="744.09448"
       height="1052.3622" />
    <use
       x="0"
       y="0"
       xlink:href="#text3850-1"
       id="use3211"
       transform="translate(99.212589,-99.212596)"
       width="744.09448"
       height="1052.3622" />
    <use
       x="0"
       y="0"
       xlink:href="#text3850-1"
       id="use3213"
       transform="translate(148.81889,-148.8189)"
       width="744.09448"
       height="1052.3622" />
    <text
       transform="matrix(0.70710678,0.70710678,-0.70710678,0.70710678,0,0)"
       sodipodi:linespacing="125%"
       id="use3215"
       y="-19.31872"
       x="344.47174"
       style="font-size:48px;font-style:normal;font-variant:normal;font-weight:normal;font-stretch:normal;line-height:125%;letter-spacing:0px;word-spacing:0px;fill:#ffffff;fill-opacity:1;stroke:none;font-family:Yanone Kaffeesatz;-inkscape-font-specification:Yanone Kaffeesatz"
       xml:space="preserve"><tspan
         y="-19.31872"
         x="344.47174"
         id="tspan4072"
         sodipodi:role="line">3</tspan></text>
    <use
       x="0"
       y="0"
       xlink:href="#text3850-06"
       id="use3217"
       transform="translate(49.606293,-49.606308)"
       width="744.09448"
       height="1052.3622" />
    <text
       transform="matrix(0.70710678,0.70710678,-0.70710678,0.70710678,0,0)"
       sodipodi:linespacing="125%"
       id="use3219"
       y="53.23518"
       x="274.36584"
       style="font-size:48px;font-style:normal;font-variant:normal;font-weight:normal;font-stretch:normal;line-height:125%;letter-spacing:0px;word-spacing:0px;fill:#ffffff;fill-opacity:1;stroke:none;font-family:Yanone Kaffeesatz;-inkscape-font-specification:Yanone Kaffeesatz"
       xml:space="preserve"><tspan
         y="53.23518"
         x="274.36584"
         id="tspan3993"
         sodipodi:role="line">2</tspan></text>
  </g>
</svg>
